<?xml version="1.0" encoding="UTF-8" standalone="no"?>
<!DOCTYPE svg PUBLIC "-//W3C//DTD SVG 1.1//EN"
 "http://www.w3.org/Graphics/SVG/1.1/DTD/svg11.dtd">
<!-- Generated by graphviz version 2.46.0 (20210119.1425)
 -->
<!-- Title: dependencies Pages: 1 -->
<svg width="2527pt" height="284pt"
 viewBox="0.00 0.00 2527.00 284.00" xmlns="http://www.w3.org/2000/svg" xmlns:xlink="http://www.w3.org/1999/xlink">
<g id="graph0" class="graph" transform="scale(1 1) rotate(0) translate(4 280)">
<title>dependencies</title>
<polygon fill="white" stroke="transparent" points="-4,4 -4,-280 2523,-280 2523,4 -4,4"/>
<text text-anchor="start" x="1238.51" y="-42.4" font-family="sans-serif" font-weight="bold" font-size="14.00">Legend</text>
<polygon fill="#ffffb3" stroke="transparent" points="1025.5,-10 1025.5,-30 1045.5,-30 1045.5,-10 1025.5,-10"/>
<text text-anchor="start" x="1049.13" y="-15.4" font-family="sans-serif" font-size="14.00"> &#160;Declarations</text>
<polygon fill="#8dd3c7" stroke="transparent" points="1138.5,-10 1138.5,-30 1158.5,-30 1158.5,-10 1138.5,-10"/>
<text text-anchor="start" x="1162.23" y="-15.4" font-family="sans-serif" font-size="14.00"> &#160;Module</text>
<polygon fill="#80b1d3" stroke="transparent" points="1224.5,-10 1224.5,-30 1244.5,-30 1244.5,-10 1224.5,-10"/>
<text text-anchor="start" x="1248.28" y="-15.4" font-family="sans-serif" font-size="14.00"> &#160;Bootstrap</text>
<polygon fill="#fdb462" stroke="transparent" points="1321.5,-10 1321.5,-30 1341.5,-30 1341.5,-10 1321.5,-10"/>
<text text-anchor="start" x="1345.17" y="-15.4" font-family="sans-serif" font-size="14.00"> &#160;Providers</text>
<polygon fill="#fb8072" stroke="transparent" points="1417.5,-10 1417.5,-30 1437.5,-30 1437.5,-10 1417.5,-10"/>
<text text-anchor="start" x="1441.23" y="-15.4" font-family="sans-serif" font-size="14.00"> &#160;Exports</text>
<g id="clust1" class="cluster">
<title>cluster_AppModule</title>
<polygon fill="none" stroke="black" stroke-dasharray="1,5" points="8,-70 8,-268 2511,-268 2511,-70 8,-70"/>
</g>
<g id="clust2" class="cluster">
<title>cluster_AppModule_declarations</title>
<polygon fill="none" stroke="black" points="168,-78 168,-130 2503,-130 2503,-78 168,-78"/>
</g>
<g id="clust19" class="cluster">
<title>cluster_AppModule_imports</title>
<polygon fill="none" stroke="black" points="16,-78 16,-130 160,-130 160,-78 16,-78"/>
</g>
<g id="clust21" class="cluster">
<title>cluster_AppModule_bootstrap</title>
<polygon fill="none" stroke="black" points="1285,-208 1285,-260 1409,-260 1409,-208 1285,-208"/>
</g>
<!-- AppComponent -->
<g id="node1" class="node">
<title>AppComponent</title>
<polygon fill="#ffffb3" stroke="black" points="2494.94,-122 2389.06,-122 2389.06,-86 2494.94,-86 2494.94,-122"/>
<text text-anchor="middle" x="2442" y="-99.8" font-family="Times,serif" font-size="14.00">AppComponent</text>
</g>
<!-- AppModule -->
<g id="node17" class="node">
<title>AppModule</title>
<polygon fill="#8dd3c7" stroke="black" points="1388.66,-187 1385.66,-191 1364.66,-191 1361.66,-187 1305.34,-187 1305.34,-151 1388.66,-151 1388.66,-187"/>
<text text-anchor="middle" x="1347" y="-164.8" font-family="Times,serif" font-size="14.00">AppModule</text>
</g>
<!-- AppComponent&#45;&gt;AppModule -->
<g id="edge1" class="edge">
<title>AppComponent&#45;&gt;AppModule</title>
<path fill="none" stroke="black" d="M2442,-122.32C2442,-145.66 2442,-183 2442,-183 2442,-183 1398.92,-183 1398.92,-183"/>
<polygon fill="black" stroke="black" points="1398.92,-179.5 1388.92,-183 1398.92,-186.5 1398.92,-179.5"/>
</g>
<!-- CarreiraComponent -->
<g id="node2" class="node">
<title>CarreiraComponent</title>
<polygon fill="#ffffb3" stroke="black" points="2371.69,-122 2244.31,-122 2244.31,-86 2371.69,-86 2371.69,-122"/>
<text text-anchor="middle" x="2308" y="-99.8" font-family="Times,serif" font-size="14.00">CarreiraComponent</text>
</g>
<!-- CarreiraComponent&#45;&gt;AppModule -->
<g id="edge2" class="edge">
<title>CarreiraComponent&#45;&gt;AppModule</title>
<path fill="none" stroke="black" d="M2308,-122.16C2308,-144.35 2308,-179 2308,-179 2308,-179 1398.91,-179 1398.91,-179"/>
<polygon fill="black" stroke="black" points="1398.91,-175.5 1388.91,-179 1398.91,-182.5 1398.91,-175.5"/>
</g>
<!-- EquipeComponent -->
<g id="node3" class="node">
<title>EquipeComponent</title>
<polygon fill="#ffffb3" stroke="black" points="2226.49,-122 2105.51,-122 2105.51,-86 2226.49,-86 2226.49,-122"/>
<text text-anchor="middle" x="2166" y="-99.8" font-family="Times,serif" font-size="14.00">EquipeComponent</text>
</g>
<!-- EquipeComponent&#45;&gt;AppModule -->
<g id="edge3" class="edge">
<title>EquipeComponent&#45;&gt;AppModule</title>
<path fill="none" stroke="black" d="M2166,-122.28C2166,-143.32 2166,-175 2166,-175 2166,-175 1398.74,-175 1398.74,-175"/>
<polygon fill="black" stroke="black" points="1398.74,-171.5 1388.74,-175 1398.74,-178.5 1398.74,-171.5"/>
</g>
<!-- FooterComponent -->
<g id="node4" class="node">
<title>FooterComponent</title>
<polygon fill="#ffffb3" stroke="black" points="2087.88,-122 1970.12,-122 1970.12,-86 2087.88,-86 2087.88,-122"/>
<text text-anchor="middle" x="2029" y="-99.8" font-family="Times,serif" font-size="14.00">FooterComponent</text>
</g>
<!-- FooterComponent&#45;&gt;AppModule -->
<g id="edge4" class="edge">
<title>FooterComponent&#45;&gt;AppModule</title>
<path fill="none" stroke="black" d="M2029,-122.31C2029,-142.15 2029,-171 2029,-171 2029,-171 1398.89,-171 1398.89,-171"/>
<polygon fill="black" stroke="black" points="1398.89,-167.5 1388.89,-171 1398.89,-174.5 1398.89,-167.5"/>
</g>
<!-- HomensComponent -->
<g id="node5" class="node">
<title>HomensComponent</title>
<polygon fill="#ffffb3" stroke="black" points="1951.99,-122 1824.01,-122 1824.01,-86 1951.99,-86 1951.99,-122"/>
<text text-anchor="middle" x="1888" y="-99.8" font-family="Times,serif" font-size="14.00">HomensComponent</text>
</g>
<!-- HomensComponent&#45;&gt;AppModule -->
<g id="edge5" class="edge">
<title>HomensComponent&#45;&gt;AppModule</title>
<path fill="none" stroke="black" d="M1888,-122.22C1888,-140.83 1888,-167 1888,-167 1888,-167 1399,-167 1399,-167"/>
<polygon fill="black" stroke="black" points="1399,-163.5 1389,-167 1399,-170.5 1399,-163.5"/>
</g>
<!-- MenuComponent -->
<g id="node6" class="node">
<title>MenuComponent</title>
<polygon fill="#ffffb3" stroke="black" points="1805.99,-122 1692.01,-122 1692.01,-86 1805.99,-86 1805.99,-122"/>
<text text-anchor="middle" x="1749" y="-99.8" font-family="Times,serif" font-size="14.00">MenuComponent</text>
</g>
<!-- MenuComponent&#45;&gt;AppModule -->
<g id="edge6" class="edge">
<title>MenuComponent&#45;&gt;AppModule</title>
<path fill="none" stroke="black" d="M1749,-122.02C1749,-139.37 1749,-163 1749,-163 1749,-163 1398.88,-163 1398.88,-163"/>
<polygon fill="black" stroke="black" points="1398.88,-159.5 1388.88,-163 1398.88,-166.5 1398.88,-159.5"/>
</g>
<!-- OngsComponent -->
<g id="node7" class="node">
<title>OngsComponent</title>
<polygon fill="#ffffb3" stroke="black" points="1674.38,-122 1563.62,-122 1563.62,-86 1674.38,-86 1674.38,-122"/>
<text text-anchor="middle" x="1619" y="-99.8" font-family="Times,serif" font-size="14.00">OngsComponent</text>
</g>
<!-- OngsComponent&#45;&gt;AppModule -->
<g id="edge7" class="edge">
<title>OngsComponent&#45;&gt;AppModule</title>
<path fill="none" stroke="black" d="M1619,-122.01C1619,-138.05 1619,-159 1619,-159 1619,-159 1398.9,-159 1398.9,-159"/>
<polygon fill="black" stroke="black" points="1398.9,-155.5 1388.9,-159 1398.9,-162.5 1398.9,-155.5"/>
</g>
<!-- PerfilComponent -->
<g id="node8" class="node">
<title>PerfilComponent</title>
<polygon fill="#ffffb3" stroke="black" points="1545.43,-122 1432.57,-122 1432.57,-86 1545.43,-86 1545.43,-122"/>
<text text-anchor="middle" x="1489" y="-99.8" font-family="Times,serif" font-size="14.00">PerfilComponent</text>
</g>
<!-- PerfilComponent&#45;&gt;AppModule -->
<g id="edge8" class="edge">
<title>PerfilComponent&#45;&gt;AppModule</title>
<path fill="none" stroke="black" d="M1489,-122.12C1489,-136.78 1489,-155 1489,-155 1489,-155 1398.84,-155 1398.84,-155"/>
<polygon fill="black" stroke="black" points="1398.84,-151.5 1388.84,-155 1398.84,-158.5 1398.84,-151.5"/>
</g>
<!-- PostagemComponent -->
<g id="node9" class="node">
<title>PostagemComponent</title>
<polygon fill="#ffffb3" stroke="black" points="1414.77,-122 1279.23,-122 1279.23,-86 1414.77,-86 1414.77,-122"/>
<text text-anchor="middle" x="1347" y="-99.8" font-family="Times,serif" font-size="14.00">PostagemComponent</text>
</g>
<!-- PostagemComponent&#45;&gt;AppModule -->
<g id="edge9" class="edge">
<title>PostagemComponent&#45;&gt;AppModule</title>
<path fill="none" stroke="black" d="M1333.06,-122.11C1333.06,-122.11 1333.06,-140.99 1333.06,-140.99"/>
<polygon fill="black" stroke="black" points="1329.56,-140.99 1333.06,-150.99 1336.56,-140.99 1329.56,-140.99"/>
</g>
<!-- PostagemComponent&#45;&gt;AppModule -->
<g id="edge10" class="edge">
<title>PostagemComponent&#45;&gt;AppModule</title>
<path fill="none" stroke="black" d="M1360.94,-122.11C1360.94,-122.11 1360.94,-140.99 1360.94,-140.99"/>
<polygon fill="black" stroke="black" points="1357.44,-140.99 1360.94,-150.99 1364.44,-140.99 1357.44,-140.99"/>
</g>
<!-- PostagemDeleteComponent -->
<g id="node10" class="node">
<title>PostagemDeleteComponent</title>
<polygon fill="#ffffb3" stroke="black" points="1261.3,-122 1088.7,-122 1088.7,-86 1261.3,-86 1261.3,-122"/>
<text text-anchor="middle" x="1175" y="-99.8" font-family="Times,serif" font-size="14.00">PostagemDeleteComponent</text>
</g>
<!-- PostagemDeleteComponent&#45;&gt;AppModule -->
<g id="edge11" class="edge">
<title>PostagemDeleteComponent&#45;&gt;AppModule</title>
<path fill="none" stroke="black" d="M1175,-122.12C1175,-136.78 1175,-155 1175,-155 1175,-155 1294.92,-155 1294.92,-155"/>
<polygon fill="black" stroke="black" points="1294.92,-158.5 1304.92,-155 1294.92,-151.5 1294.92,-158.5"/>
</g>
<!-- PostagemEditComponent -->
<g id="node11" class="node">
<title>PostagemEditComponent</title>
<polygon fill="#ffffb3" stroke="black" points="1070.6,-122 911.4,-122 911.4,-86 1070.6,-86 1070.6,-122"/>
<text text-anchor="middle" x="991" y="-99.8" font-family="Times,serif" font-size="14.00">PostagemEditComponent</text>
</g>
<!-- PostagemEditComponent&#45;&gt;AppModule -->
<g id="edge12" class="edge">
<title>PostagemEditComponent&#45;&gt;AppModule</title>
<path fill="none" stroke="black" d="M991,-122.01C991,-138.05 991,-159 991,-159 991,-159 1295.12,-159 1295.12,-159"/>
<polygon fill="black" stroke="black" points="1295.12,-162.5 1305.12,-159 1295.12,-155.5 1295.12,-162.5"/>
</g>
<!-- RodapeComponent -->
<g id="node12" class="node">
<title>RodapeComponent</title>
<polygon fill="#ffffb3" stroke="black" points="893.1,-122 768.9,-122 768.9,-86 893.1,-86 893.1,-122"/>
<text text-anchor="middle" x="831" y="-99.8" font-family="Times,serif" font-size="14.00">RodapeComponent</text>
</g>
<!-- RodapeComponent&#45;&gt;AppModule -->
<g id="edge13" class="edge">
<title>RodapeComponent&#45;&gt;AppModule</title>
<path fill="none" stroke="black" d="M831,-122.02C831,-139.37 831,-163 831,-163 831,-163 1295.21,-163 1295.21,-163"/>
<polygon fill="black" stroke="black" points="1295.21,-166.5 1305.21,-163 1295.21,-159.5 1295.21,-166.5"/>
</g>
<!-- TemaComponent -->
<g id="node13" class="node">
<title>TemaComponent</title>
<polygon fill="#ffffb3" stroke="black" points="750.7,-122 637.3,-122 637.3,-86 750.7,-86 750.7,-122"/>
<text text-anchor="middle" x="694" y="-99.8" font-family="Times,serif" font-size="14.00">TemaComponent</text>
</g>
<!-- TemaComponent&#45;&gt;AppModule -->
<g id="edge14" class="edge">
<title>TemaComponent&#45;&gt;AppModule</title>
<path fill="none" stroke="black" d="M694,-122.22C694,-140.83 694,-167 694,-167 694,-167 1295.16,-167 1295.16,-167"/>
<polygon fill="black" stroke="black" points="1295.16,-170.5 1305.16,-167 1295.16,-163.5 1295.16,-170.5"/>
</g>
<!-- TemaDeleteComponent -->
<g id="node14" class="node">
<title>TemaDeleteComponent</title>
<polygon fill="#ffffb3" stroke="black" points="619.74,-122 470.26,-122 470.26,-86 619.74,-86 619.74,-122"/>
<text text-anchor="middle" x="545" y="-99.8" font-family="Times,serif" font-size="14.00">TemaDeleteComponent</text>
</g>
<!-- TemaDeleteComponent&#45;&gt;AppModule -->
<g id="edge15" class="edge">
<title>TemaDeleteComponent&#45;&gt;AppModule</title>
<path fill="none" stroke="black" d="M545,-122.31C545,-142.15 545,-171 545,-171 545,-171 1295.29,-171 1295.29,-171"/>
<polygon fill="black" stroke="black" points="1295.29,-174.5 1305.29,-171 1295.29,-167.5 1295.29,-174.5"/>
</g>
<!-- TemaEditComponent -->
<g id="node15" class="node">
<title>TemaEditComponent</title>
<polygon fill="#ffffb3" stroke="black" points="452.04,-122 315.96,-122 315.96,-86 452.04,-86 452.04,-122"/>
<text text-anchor="middle" x="384" y="-99.8" font-family="Times,serif" font-size="14.00">TemaEditComponent</text>
</g>
<!-- TemaEditComponent&#45;&gt;AppModule -->
<g id="edge16" class="edge">
<title>TemaEditComponent&#45;&gt;AppModule</title>
<path fill="none" stroke="black" d="M384,-122.28C384,-143.32 384,-175 384,-175 384,-175 1295.31,-175 1295.31,-175"/>
<polygon fill="black" stroke="black" points="1295.31,-178.5 1305.31,-175 1295.31,-171.5 1295.31,-178.5"/>
</g>
<!-- TopbarComponent -->
<g id="node16" class="node">
<title>TopbarComponent</title>
<polygon fill="#ffffb3" stroke="black" points="297.76,-122 176.24,-122 176.24,-86 297.76,-86 297.76,-122"/>
<text text-anchor="middle" x="237" y="-99.8" font-family="Times,serif" font-size="14.00">TopbarComponent</text>
</g>
<!-- TopbarComponent&#45;&gt;AppModule -->
<g id="edge17" class="edge">
<title>TopbarComponent&#45;&gt;AppModule</title>
<path fill="none" stroke="black" d="M237,-122.16C237,-144.35 237,-179 237,-179 237,-179 1295.18,-179 1295.18,-179"/>
<polygon fill="black" stroke="black" points="1295.18,-182.5 1305.18,-179 1295.18,-175.5 1295.18,-182.5"/>
</g>
<!-- AppComponent  -->
<g id="node19" class="node">
<title>AppComponent </title>
<polygon fill="#80b1d3" stroke="black" points="1401.44,-252 1292.56,-252 1292.56,-216 1401.44,-216 1401.44,-252"/>
<text text-anchor="middle" x="1347" y="-229.8" font-family="Times,serif" font-size="14.00">AppComponent </text>
</g>
<!-- AppModule&#45;&gt;AppComponent  -->
<g id="edge19" class="edge">
<title>AppModule&#45;&gt;AppComponent </title>
<path fill="none" stroke="black" stroke-dasharray="1,5" d="M1347,-187.11C1347,-187.11 1347,-205.99 1347,-205.99"/>
<polygon fill="black" stroke="black" points="1343.5,-205.99 1347,-215.99 1350.5,-205.99 1343.5,-205.99"/>
</g>
<!-- AppRoutingModule -->
<g id="node18" class="node">
<title>AppRoutingModule</title>
<polygon fill="#8dd3c7" stroke="black" points="152.27,-122 149.27,-126 128.27,-126 125.27,-122 23.73,-122 23.73,-86 152.27,-86 152.27,-122"/>
<text text-anchor="middle" x="88" y="-99.8" font-family="Times,serif" font-size="14.00">AppRoutingModule</text>
</g>
<!-- AppRoutingModule&#45;&gt;AppModule -->
<g id="edge18" class="edge">
<title>AppRoutingModule&#45;&gt;AppModule</title>
<path fill="none" stroke="black" d="M88,-122.32C88,-145.66 88,-183 88,-183 88,-183 1295.11,-183 1295.11,-183"/>
<polygon fill="black" stroke="black" points="1295.11,-186.5 1305.11,-183 1295.11,-179.5 1295.11,-186.5"/>
</g>
</g>
</svg>
