<?xml version="1.0" encoding="UTF-8" standalone="no"?>
<!DOCTYPE svg PUBLIC "-//W3C//DTD SVG 1.1//EN"
 "http://www.w3.org/Graphics/SVG/1.1/DTD/svg11.dtd">
<!-- Generated by graphviz version 2.46.0 (20210119.1425)
 -->
<!-- Title: dependencies Pages: 1 -->
<svg width="2381pt" height="284pt"
 viewBox="0.00 0.00 2381.00 284.00" xmlns="http://www.w3.org/2000/svg" xmlns:xlink="http://www.w3.org/1999/xlink">
<g id="graph0" class="graph" transform="scale(1 1) rotate(0) translate(4 280)">
<title>dependencies</title>
<polygon fill="white" stroke="transparent" points="-4,4 -4,-280 2377,-280 2377,4 -4,4"/>
<text text-anchor="start" x="1165.51" y="-42.4" font-family="sans-serif" font-weight="bold" font-size="14.00">Legend</text>
<polygon fill="#ffffb3" stroke="transparent" points="952.5,-10 952.5,-30 972.5,-30 972.5,-10 952.5,-10"/>
<text text-anchor="start" x="976.13" y="-15.4" font-family="sans-serif" font-size="14.00"> &#160;Declarations</text>
<polygon fill="#8dd3c7" stroke="transparent" points="1065.5,-10 1065.5,-30 1085.5,-30 1085.5,-10 1065.5,-10"/>
<text text-anchor="start" x="1089.23" y="-15.4" font-family="sans-serif" font-size="14.00"> &#160;Module</text>
<polygon fill="#80b1d3" stroke="transparent" points="1151.5,-10 1151.5,-30 1171.5,-30 1171.5,-10 1151.5,-10"/>
<text text-anchor="start" x="1175.28" y="-15.4" font-family="sans-serif" font-size="14.00"> &#160;Bootstrap</text>
<polygon fill="#fdb462" stroke="transparent" points="1248.5,-10 1248.5,-30 1268.5,-30 1268.5,-10 1248.5,-10"/>
<text text-anchor="start" x="1272.17" y="-15.4" font-family="sans-serif" font-size="14.00"> &#160;Providers</text>
<polygon fill="#fb8072" stroke="transparent" points="1344.5,-10 1344.5,-30 1364.5,-30 1364.5,-10 1344.5,-10"/>
<text text-anchor="start" x="1368.23" y="-15.4" font-family="sans-serif" font-size="14.00"> &#160;Exports</text>
<g id="clust1" class="cluster">
<title>cluster_AppModule</title>
<polygon fill="none" stroke="black" stroke-dasharray="1,5" points="8,-70 8,-268 2365,-268 2365,-70 8,-70"/>
</g>
<g id="clust20" class="cluster">
<title>cluster_AppModule_bootstrap</title>
<polygon fill="none" stroke="black" points="1133,-208 1133,-260 1257,-260 1257,-208 1133,-208"/>
</g>
<g id="clust18" class="cluster">
<title>cluster_AppModule_imports</title>
<polygon fill="none" stroke="black" points="2213,-78 2213,-130 2357,-130 2357,-78 2213,-78"/>
</g>
<g id="clust2" class="cluster">
<title>cluster_AppModule_declarations</title>
<polygon fill="none" stroke="black" points="16,-78 16,-130 2205,-130 2205,-78 16,-78"/>
</g>
<!-- AppComponent -->
<g id="node1" class="node">
<title>AppComponent</title>
<polygon fill="#ffffb3" stroke="black" points="2196.94,-122 2091.06,-122 2091.06,-86 2196.94,-86 2196.94,-122"/>
<text text-anchor="middle" x="2144" y="-99.8" font-family="Times,serif" font-size="14.00">AppComponent</text>
</g>
<!-- AppModule -->
<g id="node16" class="node">
<title>AppModule</title>
<polygon fill="#8dd3c7" stroke="black" points="1236.66,-187 1233.66,-191 1212.66,-191 1209.66,-187 1153.34,-187 1153.34,-151 1236.66,-151 1236.66,-187"/>
<text text-anchor="middle" x="1195" y="-164.8" font-family="Times,serif" font-size="14.00">AppModule</text>
</g>
<!-- AppComponent&#45;&gt;AppModule -->
<g id="edge1" class="edge">
<title>AppComponent&#45;&gt;AppModule</title>
<path fill="none" stroke="black" d="M2144,-122.16C2144,-144.35 2144,-179 2144,-179 2144,-179 1246.69,-179 1246.69,-179"/>
<polygon fill="black" stroke="black" points="1246.69,-175.5 1236.69,-179 1246.69,-182.5 1246.69,-175.5"/>
</g>
<!-- CarreiraComponent -->
<g id="node2" class="node">
<title>CarreiraComponent</title>
<polygon fill="#ffffb3" stroke="black" points="2073.69,-122 1946.31,-122 1946.31,-86 2073.69,-86 2073.69,-122"/>
<text text-anchor="middle" x="2010" y="-99.8" font-family="Times,serif" font-size="14.00">CarreiraComponent</text>
</g>
<!-- CarreiraComponent&#45;&gt;AppModule -->
<g id="edge2" class="edge">
<title>CarreiraComponent&#45;&gt;AppModule</title>
<path fill="none" stroke="black" d="M2010,-122.28C2010,-143.32 2010,-175 2010,-175 2010,-175 1246.82,-175 1246.82,-175"/>
<polygon fill="black" stroke="black" points="1246.82,-171.5 1236.82,-175 1246.82,-178.5 1246.82,-171.5"/>
</g>
<!-- EquipeComponent -->
<g id="node3" class="node">
<title>EquipeComponent</title>
<polygon fill="#ffffb3" stroke="black" points="1928.49,-122 1807.51,-122 1807.51,-86 1928.49,-86 1928.49,-122"/>
<text text-anchor="middle" x="1868" y="-99.8" font-family="Times,serif" font-size="14.00">EquipeComponent</text>
</g>
<!-- EquipeComponent&#45;&gt;AppModule -->
<g id="edge3" class="edge">
<title>EquipeComponent&#45;&gt;AppModule</title>
<path fill="none" stroke="black" d="M1868,-122.31C1868,-142.15 1868,-171 1868,-171 1868,-171 1246.84,-171 1246.84,-171"/>
<polygon fill="black" stroke="black" points="1246.84,-167.5 1236.84,-171 1246.84,-174.5 1246.84,-167.5"/>
</g>
<!-- FooterComponent -->
<g id="node4" class="node">
<title>FooterComponent</title>
<polygon fill="#ffffb3" stroke="black" points="1789.88,-122 1672.12,-122 1672.12,-86 1789.88,-86 1789.88,-122"/>
<text text-anchor="middle" x="1731" y="-99.8" font-family="Times,serif" font-size="14.00">FooterComponent</text>
</g>
<!-- FooterComponent&#45;&gt;AppModule -->
<g id="edge4" class="edge">
<title>FooterComponent&#45;&gt;AppModule</title>
<path fill="none" stroke="black" d="M1731,-122.22C1731,-140.83 1731,-167 1731,-167 1731,-167 1247.06,-167 1247.06,-167"/>
<polygon fill="black" stroke="black" points="1247.06,-163.5 1237.06,-167 1247.06,-170.5 1247.06,-163.5"/>
</g>
<!-- MenuComponent -->
<g id="node5" class="node">
<title>MenuComponent</title>
<polygon fill="#ffffb3" stroke="black" points="1653.99,-122 1540.01,-122 1540.01,-86 1653.99,-86 1653.99,-122"/>
<text text-anchor="middle" x="1597" y="-99.8" font-family="Times,serif" font-size="14.00">MenuComponent</text>
</g>
<!-- MenuComponent&#45;&gt;AppModule -->
<g id="edge5" class="edge">
<title>MenuComponent&#45;&gt;AppModule</title>
<path fill="none" stroke="black" d="M1597,-122.02C1597,-139.37 1597,-163 1597,-163 1597,-163 1246.88,-163 1246.88,-163"/>
<polygon fill="black" stroke="black" points="1246.88,-159.5 1236.88,-163 1246.88,-166.5 1246.88,-159.5"/>
</g>
<!-- OngsComponent -->
<g id="node6" class="node">
<title>OngsComponent</title>
<polygon fill="#ffffb3" stroke="black" points="1522.38,-122 1411.62,-122 1411.62,-86 1522.38,-86 1522.38,-122"/>
<text text-anchor="middle" x="1467" y="-99.8" font-family="Times,serif" font-size="14.00">OngsComponent</text>
</g>
<!-- OngsComponent&#45;&gt;AppModule -->
<g id="edge6" class="edge">
<title>OngsComponent&#45;&gt;AppModule</title>
<path fill="none" stroke="black" d="M1467,-122.01C1467,-138.05 1467,-159 1467,-159 1467,-159 1246.9,-159 1246.9,-159"/>
<polygon fill="black" stroke="black" points="1246.9,-155.5 1236.9,-159 1246.9,-162.5 1246.9,-155.5"/>
</g>
<!-- PerfilComponent -->
<g id="node7" class="node">
<title>PerfilComponent</title>
<polygon fill="#ffffb3" stroke="black" points="1393.43,-122 1280.57,-122 1280.57,-86 1393.43,-86 1393.43,-122"/>
<text text-anchor="middle" x="1337" y="-99.8" font-family="Times,serif" font-size="14.00">PerfilComponent</text>
</g>
<!-- PerfilComponent&#45;&gt;AppModule -->
<g id="edge7" class="edge">
<title>PerfilComponent&#45;&gt;AppModule</title>
<path fill="none" stroke="black" d="M1337,-122.12C1337,-136.78 1337,-155 1337,-155 1337,-155 1246.84,-155 1246.84,-155"/>
<polygon fill="black" stroke="black" points="1246.84,-151.5 1236.84,-155 1246.84,-158.5 1246.84,-151.5"/>
</g>
<!-- PostagemComponent -->
<g id="node8" class="node">
<title>PostagemComponent</title>
<polygon fill="#ffffb3" stroke="black" points="1262.77,-122 1127.23,-122 1127.23,-86 1262.77,-86 1262.77,-122"/>
<text text-anchor="middle" x="1195" y="-99.8" font-family="Times,serif" font-size="14.00">PostagemComponent</text>
</g>
<!-- PostagemComponent&#45;&gt;AppModule -->
<g id="edge8" class="edge">
<title>PostagemComponent&#45;&gt;AppModule</title>
<path fill="none" stroke="black" d="M1208.94,-122.11C1208.94,-122.11 1208.94,-140.99 1208.94,-140.99"/>
<polygon fill="black" stroke="black" points="1205.44,-140.99 1208.94,-150.99 1212.44,-140.99 1205.44,-140.99"/>
</g>
<!-- PostagemComponent&#45;&gt;AppModule -->
<g id="edge9" class="edge">
<title>PostagemComponent&#45;&gt;AppModule</title>
<path fill="none" stroke="black" d="M1181.06,-122.11C1181.06,-122.11 1181.06,-140.99 1181.06,-140.99"/>
<polygon fill="black" stroke="black" points="1177.56,-140.99 1181.06,-150.99 1184.56,-140.99 1177.56,-140.99"/>
</g>
<!-- PostagemDeleteComponent -->
<g id="node9" class="node">
<title>PostagemDeleteComponent</title>
<polygon fill="#ffffb3" stroke="black" points="1109.3,-122 936.7,-122 936.7,-86 1109.3,-86 1109.3,-122"/>
<text text-anchor="middle" x="1023" y="-99.8" font-family="Times,serif" font-size="14.00">PostagemDeleteComponent</text>
</g>
<!-- PostagemDeleteComponent&#45;&gt;AppModule -->
<g id="edge10" class="edge">
<title>PostagemDeleteComponent&#45;&gt;AppModule</title>
<path fill="none" stroke="black" d="M1023,-122.19C1023,-137.18 1023,-156 1023,-156 1023,-156 1142.92,-156 1142.92,-156"/>
<polygon fill="black" stroke="black" points="1142.92,-159.5 1152.92,-156 1142.92,-152.5 1142.92,-159.5"/>
</g>
<!-- PostagemEditComponent -->
<g id="node10" class="node">
<title>PostagemEditComponent</title>
<polygon fill="#ffffb3" stroke="black" points="918.6,-122 759.4,-122 759.4,-86 918.6,-86 918.6,-122"/>
<text text-anchor="middle" x="839" y="-99.8" font-family="Times,serif" font-size="14.00">PostagemEditComponent</text>
</g>
<!-- PostagemEditComponent&#45;&gt;AppModule -->
<g id="edge11" class="edge">
<title>PostagemEditComponent&#45;&gt;AppModule</title>
<path fill="none" stroke="black" d="M839,-122.03C839,-138.4 839,-160 839,-160 839,-160 1143.12,-160 1143.12,-160"/>
<polygon fill="black" stroke="black" points="1143.12,-163.5 1153.12,-160 1143.12,-156.5 1143.12,-163.5"/>
</g>
<!-- RodapeComponent -->
<g id="node11" class="node">
<title>RodapeComponent</title>
<polygon fill="#ffffb3" stroke="black" points="741.1,-122 616.9,-122 616.9,-86 741.1,-86 741.1,-122"/>
<text text-anchor="middle" x="679" y="-99.8" font-family="Times,serif" font-size="14.00">RodapeComponent</text>
</g>
<!-- RodapeComponent&#45;&gt;AppModule -->
<g id="edge12" class="edge">
<title>RodapeComponent&#45;&gt;AppModule</title>
<path fill="none" stroke="black" d="M679,-122.3C679,-140.27 679,-165 679,-165 679,-165 1143.21,-165 1143.21,-165"/>
<polygon fill="black" stroke="black" points="1143.21,-168.5 1153.21,-165 1143.21,-161.5 1143.21,-168.5"/>
</g>
<!-- TemaComponent -->
<g id="node12" class="node">
<title>TemaComponent</title>
<polygon fill="#ffffb3" stroke="black" points="598.7,-122 485.3,-122 485.3,-86 598.7,-86 598.7,-122"/>
<text text-anchor="middle" x="542" y="-99.8" font-family="Times,serif" font-size="14.00">TemaComponent</text>
</g>
<!-- TemaComponent&#45;&gt;AppModule -->
<g id="edge13" class="edge">
<title>TemaComponent&#45;&gt;AppModule</title>
<path fill="none" stroke="black" d="M542,-122.11C542,-141.34 542,-169 542,-169 542,-169 1143.16,-169 1143.16,-169"/>
<polygon fill="black" stroke="black" points="1143.16,-172.5 1153.16,-169 1143.16,-165.5 1143.16,-172.5"/>
</g>
<!-- TemaDeleteComponent -->
<g id="node13" class="node">
<title>TemaDeleteComponent</title>
<polygon fill="#ffffb3" stroke="black" points="467.74,-122 318.26,-122 318.26,-86 467.74,-86 467.74,-122"/>
<text text-anchor="middle" x="393" y="-99.8" font-family="Times,serif" font-size="14.00">TemaDeleteComponent</text>
</g>
<!-- TemaDeleteComponent&#45;&gt;AppModule -->
<g id="edge14" class="edge">
<title>TemaDeleteComponent&#45;&gt;AppModule</title>
<path fill="none" stroke="black" d="M393,-122.03C393,-142.77 393,-174 393,-174 393,-174 1143.29,-174 1143.29,-174"/>
<polygon fill="black" stroke="black" points="1143.29,-177.5 1153.29,-174 1143.29,-170.5 1143.29,-177.5"/>
</g>
<!-- TemaEditComponent -->
<g id="node14" class="node">
<title>TemaEditComponent</title>
<polygon fill="#ffffb3" stroke="black" points="300.04,-122 163.96,-122 163.96,-86 300.04,-86 300.04,-122"/>
<text text-anchor="middle" x="232" y="-99.8" font-family="Times,serif" font-size="14.00">TemaEditComponent</text>
</g>
<!-- TemaEditComponent&#45;&gt;AppModule -->
<g id="edge15" class="edge">
<title>TemaEditComponent&#45;&gt;AppModule</title>
<path fill="none" stroke="black" d="M232,-122.29C232,-144.21 232,-178 232,-178 232,-178 1143.31,-178 1143.31,-178"/>
<polygon fill="black" stroke="black" points="1143.31,-181.5 1153.31,-178 1143.31,-174.5 1143.31,-181.5"/>
</g>
<!-- TopbarComponent -->
<g id="node15" class="node">
<title>TopbarComponent</title>
<polygon fill="#ffffb3" stroke="black" points="145.76,-122 24.24,-122 24.24,-86 145.76,-86 145.76,-122"/>
<text text-anchor="middle" x="85" y="-99.8" font-family="Times,serif" font-size="14.00">TopbarComponent</text>
</g>
<!-- TopbarComponent&#45;&gt;AppModule -->
<g id="edge16" class="edge">
<title>TopbarComponent&#45;&gt;AppModule</title>
<path fill="none" stroke="black" d="M85,-122.32C85,-145.66 85,-183 85,-183 85,-183 1143.18,-183 1143.18,-183"/>
<polygon fill="black" stroke="black" points="1143.18,-186.5 1153.18,-183 1143.18,-179.5 1143.18,-186.5"/>
</g>
<!-- AppComponent  -->
<g id="node18" class="node">
<title>AppComponent </title>
<polygon fill="#80b1d3" stroke="black" points="1249.44,-252 1140.56,-252 1140.56,-216 1249.44,-216 1249.44,-252"/>
<text text-anchor="middle" x="1195" y="-229.8" font-family="Times,serif" font-size="14.00">AppComponent </text>
</g>
<!-- AppModule&#45;&gt;AppComponent  -->
<g id="edge18" class="edge">
<title>AppModule&#45;&gt;AppComponent </title>
<path fill="none" stroke="black" stroke-dasharray="1,5" d="M1195,-187.11C1195,-187.11 1195,-205.99 1195,-205.99"/>
<polygon fill="black" stroke="black" points="1191.5,-205.99 1195,-215.99 1198.5,-205.99 1191.5,-205.99"/>
</g>
<!-- AppRoutingModule -->
<g id="node17" class="node">
<title>AppRoutingModule</title>
<polygon fill="#8dd3c7" stroke="black" points="2349.27,-122 2346.27,-126 2325.27,-126 2322.27,-122 2220.73,-122 2220.73,-86 2349.27,-86 2349.27,-122"/>
<text text-anchor="middle" x="2285" y="-99.8" font-family="Times,serif" font-size="14.00">AppRoutingModule</text>
</g>
<!-- AppRoutingModule&#45;&gt;AppModule -->
<g id="edge17" class="edge">
<title>AppRoutingModule&#45;&gt;AppModule</title>
<path fill="none" stroke="black" d="M2285,-122.32C2285,-145.66 2285,-183 2285,-183 2285,-183 1246.73,-183 1246.73,-183"/>
<polygon fill="black" stroke="black" points="1246.73,-179.5 1236.73,-183 1246.73,-186.5 1246.73,-179.5"/>
</g>
</g>
</svg>
